# xmcd
#
# Track frame offsets:
#	150
#	11868
#	23851
#	35596
#	49097
#	62123
#	71399
#	81536
#	92177
#	101013
#	110391
#	122773
#
# Disc length: 1814 seconds
#
# Revision: 0
# Processed by: cddbd v1.5.2PL0 Copyright (c) Steve Scherf et al.
# Submitted via: audiograbber 1.83.01
#
DISCID=a407140c
DTITLE=Johnny Cash - Walk The Line The Very Best Of - CD2 The Love Songs
DYEAR=2006
DGENRE=Country
TTITLE0=A Thing Called Love
TTITLE1=Flesh and Blood
TTITLE2=I Still Miss Someone
TTITLE3=If I Were a Carpenter
TTITLE4=My Old Faded Rose
TTITLE5=Oh, What a Dream
TTITLE6=All Over Again
TTITLE7=While I've Got It on My Mind
TTITLE8=A Little at a Time
TTITLE9=I Feel Better All Over
TTITLE10=Understand Your Man
TTITLE11=Happiness Is You
EXTD=
EXTT0=
EXTT1=
EXTT2=
EXTT3=
EXTT4=
EXTT5=
EXTT6=
EXTT7=
EXTT8=
EXTT9=
EXTT10=
EXTT11=
PLAYORDER=
